<svg xmlns="http://www.w3.org/2000/svg" viewBox="0 0 1024 1024" role="img" aria-label="Acqua Pet logo icon">
  <defs>
    <linearGradient id="blueGrad" x1="180" y1="100" x2="850" y2="900" gradientUnits="userSpaceOnUse">
      <stop offset="0" stop-color="#07118F"/>
      <stop offset="1" stop-color="#001B8F"/>
    </linearGradient>
  </defs>

  <!-- Fundo transparente fora do círculo -->
  <circle cx="512" cy="512" r="430" fill="url(#blueGrad)"/>

  <!-- Silhueta do cachorro -->
  <path fill="#FFFFFF" d="
    M270 690
    C250 610 255 510 300 430
    C322 390 350 360 385 332
    C388 280 400 222 438 166
    C452 144 470 144 482 166
    L510 225
    L544 154
    C556 130 579 130 588 158
    L622 272
    C672 284 726 298 764 330
    C802 361 805 402 779 430
    C744 468 690 474 645 464
    C631 500 613 536 590 566
    C553 615 536 670 548 725
    C559 777 596 817 650 831
    C583 870 500 862 452 806
    C411 758 408 692 433 638
    C455 590 480 562 505 531
    C459 527 413 505 382 467
    C330 520 295 590 270 690 Z
  "/>

  <!-- Olho do cachorro -->
  <ellipse cx="620" cy="326" rx="18" ry="12" fill="#07118F" transform="rotate(-18 620 326)"/>

  <!-- Silhueta do gato em negativo azul, integrada à composição -->
  <path fill="#06159A" d="
    M360 725
    C348 663 360 595 395 546
    L392 490
    C392 466 408 459 423 478
    L450 512
    L480 478
    C496 460 514 468 512 492
    L509 538
    C554 555 586 591 595 638
    C606 694 570 750 515 771
    C454 794 386 775 360 725 Z
  "/>

  <!-- Parte branca do pescoço/corpo do gato -->
  <path fill="#FFFFFF" d="
    M382 732
    C370 668 388 610 427 578
    C454 556 489 548 521 561
    C500 588 480 616 466 651
    C444 706 448 766 482 811
    C437 801 397 775 382 732 Z
  "/>

  <!-- Cabeça do gato azul dentro do espaço branco -->
  <path fill="#06159A" d="
    M383 604
    C383 555 414 514 459 504
    L455 462
    C453 442 468 436 481 451
    L507 480
    L536 455
    C550 443 565 452 559 470
    L548 508
    C584 527 607 563 606 606
    C604 668 553 714 492 709
    C432 704 383 660 383 604 Z
  "/>
  <ellipse cx="510" cy="568" rx="13" ry="9" fill="#FFFFFF" transform="rotate(22 510 568)"/>

  <!-- Bolhas -->
  <circle cx="735" cy="540" r="24" fill="#1688FF"/>
  <circle cx="756" cy="600" r="15" fill="#1688FF"/>
  <circle cx="701" cy="644" r="23" fill="#1688FF"/>

  <!-- Peixe -->
  <path fill="#FFB400" d="M584 705 C624 670 695 670 735 705 C697 742 626 742 584 705 Z"/>
  <path fill="#FFB400" d="M586 705 L548 679 C537 672 526 681 529 694 L537 728 C540 741 555 744 564 734 Z"/>
  <path fill="#FFFFFF" d="M638 681 C648 696 648 716 638 731 L622 731 C632 716 632 696 622 681 Z"/>
  <path fill="#FFFFFF" d="M681 682 C691 697 692 716 682 731 L666 731 C675 716 675 697 666 682 Z"/>
  <circle cx="710" cy="704" r="8" fill="#07118F"/>

  <!-- Swoosh inferior -->
  <path fill="#FFFFFF" d="M545 858 C640 884 746 854 813 796 C748 880 621 924 492 881 C515 874 534 866 545 858 Z"/>
</svg>
